<svg xmlns="http://www.w3.org/2000/svg" viewBox="0 0 55.6 48"><defs><style>.a{fill:#fff;}</style></defs><title>nav-text</title><path class="a" d="M10.8,30.9H9.7v-2h0a5,5,0,0,1-4.2,2.2C2.1,31.1,0,28.5,0,25.2s2.1-5.7,5.4-5.7a5.1,5.1,0,0,1,4.3,2.2h0V19.8h1.1V30.9ZM1.1,25.2c0,2.5,1.7,4.8,4.4,4.8s4.4-2.3,4.4-5a4.3,4.3,0,0,0-4.4-4.6A4.5,4.5,0,0,0,1.1,25.2Z"/><path class="a" d="M14.5,11.1h1.1V21.7h0a5.1,5.1,0,0,1,4.3-2.2c3.3,0,5.4,2.5,5.4,5.7s-2.1,5.9-5.5,5.9a5,5,0,0,1-4.2-2.2h0v2H14.5V11.1Zm9.7,14.2a4.5,4.5,0,0,0-4.3-4.7c-2.8,0-4.4,2.1-4.4,4.7s1.6,4.8,4.4,4.8S24.3,27.8,24.3,25.2Z"/><path class="a" d="M38.5,25.3a5.8,5.8,0,1,1-5.8-5.8A5.7,5.7,0,0,1,38.5,25.3ZM28,25.3a4.7,4.7,0,1,0,4.6-4.8A4.7,4.7,0,0,0,28,25.3Z"/><path class="a" d="M48.9,19.8v6.6a5.1,5.1,0,0,1-.7,3.2,4.4,4.4,0,0,1-6.6,0,5.1,5.1,0,0,1-.7-3.2V19.8H42V26c0,2.1.2,4.1,2.9,4.1s2.9-1.9,2.9-4.1V19.8h1.1Z"/><path class="a" d="M53.6,30.9H52.5V20.8H51.3v-1h1.2v-4h1.1v4h1.9v1H53.6V30.9Z"/></svg>