<?xml version="1.0" encoding="UTF-8" standalone="no"?>
<svg width="73px" height="20px" viewBox="0 0 73 20" version="1.1" xmlns="http://www.w3.org/2000/svg" xmlns:xlink="http://www.w3.org/1999/xlink" xmlns:sketch="http://www.bohemiancoding.com/sketch/ns">
    <g id="Symbols" stroke="none" stroke-width="1" fill="none" fill-rule="evenodd" sketch:type="MSPage">
        <g id="Forms" sketch:type="MSArtboardGroup" transform="translate(-1154.000000, -793.000000)" fill="#F2F2F2">
            <path d="M1155.625,799.684 L1154.815,799.684 L1154.815,812.86 L1155.625,812.86 L1155.625,799.684 Z M1155.229,796.174 C1154.815,796.174 1154.491,796.516 1154.491,796.912 C1154.491,797.326 1154.815,797.65 1155.229,797.65 C1155.643,797.65 1155.967,797.326 1155.967,796.912 C1155.967,796.516 1155.643,796.174 1155.229,796.174 L1155.229,796.174 Z M1161.943,800.26 C1163.959,800.26 1165.273,801.772 1165.273,803.698 C1165.273,805.696 1164.121,807.424 1161.997,807.424 C1159.981,807.424 1158.721,805.696 1158.721,803.788 C1158.721,801.988 1160.035,800.26 1161.943,800.26 L1161.943,800.26 Z M1166.029,799.684 L1165.219,799.684 L1165.219,801.124 L1165.183,801.124 C1164.481,800.08 1163.257,799.504 1161.979,799.504 C1159.477,799.504 1157.911,801.358 1157.911,803.788 C1157.911,806.218 1159.495,808.18 1162.015,808.18 C1163.239,808.18 1164.571,807.568 1165.183,806.506 L1165.219,806.506 L1165.219,808 L1166.029,808 L1166.029,799.684 Z M1169.611,799.684 L1168.801,799.684 L1168.801,808 L1169.611,808 L1169.611,803.428 C1169.611,802.078 1169.935,800.26 1171.681,800.26 C1173.301,800.26 1173.535,801.574 1173.535,802.87 L1173.535,808 L1174.345,808 L1174.345,803.212 C1174.345,801.772 1174.759,800.26 1176.487,800.26 C1178.071,800.26 1178.269,801.394 1178.269,802.672 L1178.269,808 L1179.079,808 L1179.079,802.78 C1179.079,800.962 1178.647,799.504 1176.505,799.504 C1175.443,799.504 1174.525,800.026 1174.075,801.016 C1173.643,800.044 1172.797,799.504 1171.735,799.504 C1170.853,799.504 1170.025,799.954 1169.647,800.728 L1169.611,800.728 L1169.611,799.684 Z M1189.069,803.914 C1189.087,801.52 1187.593,799.504 1185.073,799.504 C1182.643,799.504 1181.041,801.502 1181.041,803.824 C1181.041,806.182 1182.607,808.18 1185.073,808.18 C1186.711,808.18 1188.043,807.37 1188.799,805.93 L1188.115,805.534 C1187.521,806.65 1186.477,807.424 1185.181,807.424 C1183.255,807.424 1181.797,806.02 1181.851,803.914 L1189.069,803.914 Z M1181.851,803.158 C1181.995,801.592 1183.399,800.26 1185.091,800.26 C1186.801,800.26 1188.061,801.628 1188.259,803.158 L1181.851,803.158 Z M1195.225,800.836 C1194.865,800.062 1193.947,799.504 1193.101,799.504 C1191.895,799.504 1190.833,800.35 1190.833,801.61 C1190.833,803.014 1192.129,803.5 1193.263,803.914 C1194.091,804.202 1194.883,804.526 1194.883,805.552 C1194.883,806.596 1194.055,807.424 1193.011,807.424 C1191.913,807.424 1191.247,806.722 1190.941,805.732 L1190.149,805.984 C1190.491,807.334 1191.625,808.18 1193.011,808.18 C1194.505,808.18 1195.693,807.118 1195.693,805.588 C1195.693,802.582 1191.643,803.554 1191.643,801.556 C1191.643,800.836 1192.363,800.26 1193.065,800.26 C1193.713,800.26 1194.253,800.62 1194.523,801.196 L1195.225,800.836 Z M1209.733,800.53 C1208.905,799.828 1207.915,799.504 1206.835,799.504 C1204.387,799.504 1202.551,801.412 1202.551,803.824 C1202.551,806.254 1204.351,808.18 1206.817,808.18 C1207.933,808.18 1208.995,807.766 1209.841,807.028 L1209.841,805.93 C1209.085,806.848 1207.969,807.424 1206.781,807.424 C1204.819,807.424 1203.361,805.714 1203.361,803.824 C1203.361,801.934 1204.837,800.26 1206.799,800.26 C1207.987,800.26 1208.941,800.746 1209.733,801.61 L1209.733,800.53 Z M1211.947,793.15 L1211.947,808 L1212.757,808 L1212.757,803.896 C1212.757,802.204 1213.099,800.26 1215.187,800.26 C1217.005,800.26 1217.185,801.484 1217.185,802.978 L1217.185,808 L1217.995,808 L1217.995,802.978 C1217.995,800.836 1217.401,799.504 1215.259,799.504 C1214.179,799.504 1213.279,800.062 1212.793,800.98 L1212.757,800.98 L1212.757,793.15 L1211.947,793.15 Z M1225.807,799.684 L1225.807,804.382 C1225.807,805.984 1225.627,807.424 1223.629,807.424 C1221.631,807.424 1221.451,805.984 1221.451,804.382 L1221.451,799.684 L1220.641,799.684 L1220.641,804.67 C1220.641,805.516 1220.623,806.362 1221.145,807.064 C1221.721,807.82 1222.693,808.18 1223.629,808.18 C1224.565,808.18 1225.537,807.82 1226.113,807.064 C1226.635,806.362 1226.617,805.516 1226.617,804.67 L1226.617,799.684 L1225.807,799.684 Z" id="james-chu" sketch:type="MSShapeGroup"></path>
        </g>
    </g>
</svg>
