<?xml version="1.0" encoding="utf-8"?>
<!-- Generator: Adobe Illustrator 19.2.0, SVG Export Plug-In . SVG Version: 6.00 Build 0)  -->
<svg version="1.1" id="Layer_1" xmlns:sketch="http://www.bohemiancoding.com/sketch/ns"
	 xmlns="http://www.w3.org/2000/svg" xmlns:xlink="http://www.w3.org/1999/xlink" x="0px" y="0px" viewBox="0 0 73 20"
	 style="enable-background:new 0 0 73 20;" xml:space="preserve">
<style type="text/css">
	.st0{fill:#F2F2F2;}
</style>
<title>james chu</title>
<desc>Created with Sketch.</desc>
<g id="Symbols" sketch:type="MSPage">
	<g id="Forms" transform="translate(-1152.000000, -796.000000)" sketch:type="MSArtboardGroup">
		<path id="james-chu" sketch:type="MSShapeGroup" class="st0" d="M1153.6,802.7h-0.8v13.2h0.8V802.7z M1153.2,799.2
			c-0.4,0-0.7,0.3-0.7,0.7c0,0.4,0.3,0.7,0.7,0.7c0.4,0,0.7-0.3,0.7-0.7C1154,799.5,1153.6,799.2,1153.2,799.2L1153.2,799.2z
			 M1159.9,803.3c2,0,3.3,1.5,3.3,3.4c0,2-1.2,3.7-3.3,3.7c-2,0-3.3-1.7-3.3-3.6C1156.7,805,1158,803.3,1159.9,803.3L1159.9,803.3z
			 M1164,802.7h-0.8v1.4h0c-0.7-1-1.9-1.6-3.2-1.6c-2.5,0-4.1,1.9-4.1,4.3c0,2.4,1.6,4.4,4.1,4.4c1.2,0,2.6-0.6,3.2-1.7h0v1.5h0.8
			V802.7z M1167.6,802.7h-0.8v8.3h0.8v-4.6c0-1.3,0.3-3.2,2.1-3.2c1.6,0,1.9,1.3,1.9,2.6v5.1h0.8v-4.8c0-1.4,0.4-3,2.1-3
			c1.6,0,1.8,1.1,1.8,2.4v5.3h0.8v-5.2c0-1.8-0.4-3.3-2.6-3.3c-1.1,0-2,0.5-2.4,1.5c-0.4-1-1.3-1.5-2.3-1.5c-0.9,0-1.7,0.4-2.1,1.2
			h0V802.7z M1187.1,806.9c0-2.4-1.5-4.4-4-4.4c-2.4,0-4,2-4,4.3c0,2.4,1.6,4.4,4,4.4c1.6,0,3-0.8,3.7-2.2l-0.7-0.4
			c-0.6,1.1-1.6,1.9-2.9,1.9c-1.9,0-3.4-1.4-3.3-3.5H1187.1z M1179.9,806.2c0.1-1.6,1.5-2.9,3.2-2.9c1.7,0,3,1.4,3.2,2.9H1179.9z
			 M1193.2,803.8c-0.4-0.8-1.3-1.3-2.1-1.3c-1.2,0-2.3,0.8-2.3,2.1c0,1.4,1.3,1.9,2.4,2.3c0.8,0.3,1.6,0.6,1.6,1.6
			c0,1-0.8,1.9-1.9,1.9c-1.1,0-1.8-0.7-2.1-1.7l-0.8,0.3c0.3,1.3,1.5,2.2,2.9,2.2c1.5,0,2.7-1.1,2.7-2.6c0-3-4.1-2-4.1-4
			c0-0.7,0.7-1.3,1.4-1.3c0.6,0,1.2,0.4,1.5,0.9L1193.2,803.8z M1207.7,803.5c-0.8-0.7-1.8-1-2.9-1c-2.4,0-4.3,1.9-4.3,4.3
			c0,2.4,1.8,4.4,4.3,4.4c1.1,0,2.2-0.4,3-1.2v-1.1c-0.8,0.9-1.9,1.5-3.1,1.5c-2,0-3.4-1.7-3.4-3.6c0-1.9,1.5-3.6,3.4-3.6
			c1.2,0,2.1,0.5,2.9,1.3V803.5z M1209.9,796.2V811h0.8v-4.1c0-1.7,0.3-3.6,2.4-3.6c1.8,0,2,1.2,2,2.7v5h0.8v-5
			c0-2.1-0.6-3.5-2.7-3.5c-1.1,0-2,0.6-2.5,1.5h0v-7.8H1209.9z M1223.8,802.7v4.7c0,1.6-0.2,3-2.2,3c-2,0-2.2-1.4-2.2-3v-4.7h-0.8v5
			c0,0.8,0,1.7,0.5,2.4c0.6,0.8,1.5,1.1,2.5,1.1c0.9,0,1.9-0.4,2.5-1.1c0.5-0.7,0.5-1.5,0.5-2.4v-5H1223.8z"/>
	</g>
</g>
</svg>
