<?xml version="1.0" encoding="UTF-8" standalone="no"?>
<svg width="37px" height="16px" viewBox="0 0 37 16" version="1.1" xmlns="http://www.w3.org/2000/svg" xmlns:xlink="http://www.w3.org/1999/xlink" xmlns:sketch="http://www.bohemiancoding.com/sketch/ns">
    <g id="Symbols" stroke="none" stroke-width="1" fill="none" fill-rule="evenodd" sketch:type="MSPage">
        <g id="Forms" sketch:type="MSArtboardGroup" transform="translate(-1172.000000, -844.000000)" fill="#F2F2F2">
            <path d="M1173.382,850.684 L1172.554,850.684 L1176.298,859.45 L1179.214,852.268 L1182.148,859.45 L1185.91,850.684 L1185.082,850.684 L1182.202,857.506 L1179.25,850.234 L1176.316,857.506 L1173.382,850.684 Z M1190.896,850.504 C1188.484,850.504 1186.576,852.466 1186.576,854.86 C1186.576,857.218 1188.502,859.18 1190.896,859.18 C1193.344,859.18 1195.27,857.308 1195.27,854.842 C1195.27,852.376 1193.344,850.504 1190.896,850.504 L1190.896,850.504 Z M1190.842,851.26 C1192.894,851.26 1194.46,852.808 1194.46,854.86 C1194.46,856.876 1192.876,858.424 1190.842,858.424 C1188.88,858.424 1187.386,856.75 1187.386,854.86 C1187.386,852.934 1188.862,851.26 1190.842,851.26 L1190.842,851.26 Z M1198.042,850.684 L1197.232,850.684 L1197.232,859 L1198.042,859 L1198.042,854.752 C1198.042,853.528 1197.934,851.26 1199.752,851.26 C1199.968,851.26 1200.13,851.314 1200.328,851.422 L1200.76,850.702 C1200.472,850.576 1200.202,850.504 1199.878,850.504 C1198.996,850.504 1198.402,851.008 1198.078,851.764 L1198.042,851.764 L1198.042,850.684 Z M1203.046,844.15 L1202.236,844.15 L1202.236,859 L1203.046,859 L1203.046,855.31 L1203.496,854.842 L1207.618,859 L1208.68,859 L1204.018,854.284 L1207.51,850.684 L1206.466,850.684 L1203.046,854.212 L1203.046,844.15 Z" id="work" sketch:type="MSShapeGroup"></path>
        </g>
    </g>
</svg>
