<?xml version="1.0" encoding="UTF-8" standalone="no"?>
<svg width="43px" height="16px" viewBox="0 0 43 16" version="1.1" xmlns="http://www.w3.org/2000/svg" xmlns:xlink="http://www.w3.org/1999/xlink" xmlns:sketch="http://www.bohemiancoding.com/sketch/ns">
    <g id="Symbols" stroke="none" stroke-width="1" fill="none" fill-rule="evenodd" sketch:type="MSPage">
        <g id="Forms" sketch:type="MSArtboardGroup" transform="translate(-1169.000000, -895.000000)" fill="#F2F2F2">
            <path d="M1173.976,902.26 C1175.992,902.26 1177.306,903.772 1177.306,905.698 C1177.306,907.696 1176.154,909.424 1174.03,909.424 C1172.014,909.424 1170.754,907.696 1170.754,905.788 C1170.754,903.988 1172.068,902.26 1173.976,902.26 L1173.976,902.26 Z M1178.062,901.684 L1177.252,901.684 L1177.252,903.124 L1177.216,903.124 C1176.514,902.08 1175.29,901.504 1174.012,901.504 C1171.51,901.504 1169.944,903.358 1169.944,905.788 C1169.944,908.218 1171.528,910.18 1174.048,910.18 C1175.272,910.18 1176.604,909.568 1177.216,908.506 L1177.252,908.506 L1177.252,910 L1178.062,910 L1178.062,901.684 Z M1184.866,909.424 C1182.814,909.424 1181.59,907.75 1181.59,905.806 C1181.59,903.826 1182.796,902.26 1184.902,902.26 C1186.828,902.26 1188.142,903.97 1188.142,905.788 C1188.142,907.696 1186.9,909.424 1184.866,909.424 L1184.866,909.424 Z M1180.834,910 L1181.644,910 L1181.644,908.506 L1181.68,908.506 C1182.292,909.568 1183.624,910.18 1184.848,910.18 C1187.368,910.18 1188.952,908.218 1188.952,905.788 C1188.952,903.358 1187.368,901.504 1184.884,901.504 C1183.606,901.504 1182.382,902.08 1181.68,903.124 L1181.644,903.124 L1181.644,895.15 L1180.834,895.15 L1180.834,910 Z M1194.424,901.504 C1192.012,901.504 1190.104,903.466 1190.104,905.86 C1190.104,908.218 1192.03,910.18 1194.424,910.18 C1196.872,910.18 1198.798,908.308 1198.798,905.842 C1198.798,903.376 1196.872,901.504 1194.424,901.504 L1194.424,901.504 Z M1194.37,902.26 C1196.422,902.26 1197.988,903.808 1197.988,905.86 C1197.988,907.876 1196.404,909.424 1194.37,909.424 C1192.408,909.424 1190.914,907.75 1190.914,905.86 C1190.914,903.934 1192.39,902.26 1194.37,902.26 L1194.37,902.26 Z M1205.8,901.684 L1205.8,906.382 C1205.8,907.984 1205.62,909.424 1203.622,909.424 C1201.624,909.424 1201.444,907.984 1201.444,906.382 L1201.444,901.684 L1200.634,901.684 L1200.634,906.67 C1200.634,907.516 1200.616,908.362 1201.138,909.064 C1201.714,909.82 1202.686,910.18 1203.622,910.18 C1204.558,910.18 1205.53,909.82 1206.106,909.064 C1206.628,908.362 1206.61,907.516 1206.61,906.67 L1206.61,901.684 L1205.8,901.684 Z M1210.156,902.44 L1211.614,902.44 L1211.614,901.684 L1210.156,901.684 L1210.156,898.714 L1209.346,898.714 L1209.346,901.684 L1208.428,901.684 L1208.428,902.44 L1209.346,902.44 L1209.346,910 L1210.156,910 L1210.156,902.44 Z" id="about" sketch:type="MSShapeGroup"></path>
        </g>
    </g>
</svg>
