<svg xmlns="http://www.w3.org/2000/svg" viewBox="0 0 48.2 48"><defs><style>.a{fill:#fff;}</style></defs><title>nav-text</title><path class="a" d="M5,28.7L8.9,19l3.9,9.7,3.8-9.1h1.1l-5,11.7L8.9,21.7,5,31.3,0,19.6H1.1Z"/><path class="a" d="M30.3,25.1a5.8,5.8,0,1,1-5.8-5.8A5.7,5.7,0,0,1,30.3,25.1Zm-10.5,0a4.7,4.7,0,1,0,4.6-4.8A4.7,4.7,0,0,0,19.8,25.2Z"/><path class="a" d="M34,21h0a2.5,2.5,0,0,1,2.4-1.7l1.2,0.3-0.6,1-0.8-.2c-2.4,0-2.3,3-2.3,4.7v5.7H32.9V19.6H34V21Z"/><path class="a" d="M40.7,24.3l4.6-4.7h1.4L42,24.4l6.2,6.3H46.8l-5.5-5.5-0.6.6v4.9H39.6V10.9h1.1V24.3Z"/></svg>